<svg xmlns="http://www.w3.org/2000/svg" xmlns:xlink="http://www.w3.org/1999/xlink" width="278" zoomAndPan="magnify" viewBox="0 0 208.5 208.499992" height="278" preserveAspectRatio="xMidYMid meet" version="1.0"><defs><clipPath id="cd0d0a9398"><path d="M 0 0 L 208 0 L 208 208 L 0 208 Z M 0 0 " clip-rule="nonzero"/></clipPath><clipPath id="8932576e9f"><path d="M 168 36 L 208 36 L 208 61 L 168 61 Z M 168 36 " clip-rule="nonzero"/></clipPath></defs><g clip-path="url(#cd0d0a9398)"><path fill="#f2e6dc" d="M 208.5 104.25 C 208.5 161.824219 161.824219 208.5 104.25 208.5 C 46.675781 208.5 0 161.824219 0 104.25 C 0 46.675781 46.675781 0 104.25 0 C 161.824219 0 208.5 46.675781 208.5 104.25 " fill-opacity="1" fill-rule="nonzero"/></g><path fill="#ffffff" d="M 108.167969 39.074219 C 106.96875 42.246094 104.449219 44.765625 101.277344 45.960938 C 90.511719 50.03125 80.464844 39.988281 84.535156 29.21875 C 85.734375 26.050781 88.253906 23.53125 91.425781 22.332031 C 102.195312 18.261719 112.238281 28.304688 108.167969 39.074219 Z M 119.496094 30.289062 L 117.214844 30.289062 C 117.011719 29.179688 116.71875 28.097656 116.351562 27.054688 L 118.320312 25.914062 L 114.464844 19.234375 L 112.488281 20.375 C 111.765625 19.527344 110.972656 18.734375 110.121094 18.011719 L 111.261719 16.035156 L 104.582031 12.175781 L 103.445312 14.148438 C 102.398438 13.777344 101.320312 13.488281 100.207031 13.285156 L 100.207031 11.003906 L 92.496094 11.003906 L 92.496094 13.285156 C 91.382812 13.488281 90.300781 13.777344 89.257812 14.148438 L 88.121094 12.175781 L 81.441406 16.035156 L 82.582031 18.011719 C 81.730469 18.734375 80.941406 19.527344 80.214844 20.375 L 78.238281 19.234375 L 74.378906 25.914062 L 76.351562 27.054688 C 75.984375 28.097656 75.691406 29.179688 75.488281 30.289062 L 73.207031 30.289062 L 73.207031 38.003906 L 75.488281 38.003906 C 75.691406 39.117188 75.984375 40.195312 76.351562 41.238281 L 74.378906 42.378906 L 78.238281 49.058594 L 80.214844 47.917969 C 80.941406 48.765625 81.730469 49.558594 82.582031 50.285156 L 81.441406 52.261719 L 88.121094 56.117188 L 89.257812 54.144531 C 90.300781 54.515625 91.382812 54.808594 92.496094 55.011719 L 92.496094 57.289062 L 100.207031 57.289062 L 100.207031 55.011719 C 101.320312 54.808594 102.398438 54.515625 103.445312 54.144531 L 104.582031 56.117188 L 111.261719 52.261719 L 110.121094 50.285156 C 110.972656 49.558594 111.765625 48.765625 112.488281 47.917969 L 114.464844 49.058594 L 118.320312 42.378906 L 116.351562 41.238281 C 116.71875 40.195312 117.011719 39.117188 117.214844 38.003906 L 119.496094 38.003906 L 119.496094 30.289062 " fill-opacity="1" fill-rule="nonzero"/><path fill="#f2e6dc" d="M 96.351562 51.273438 C 86.90625 51.273438 79.222656 43.589844 79.222656 34.148438 C 79.222656 30.019531 80.710938 26.035156 83.414062 22.925781 C 86.089844 19.84375 89.773438 17.816406 93.789062 17.210938 C 93.925781 17.191406 94.050781 17.285156 94.070312 17.425781 C 94.09375 17.5625 93.996094 17.6875 93.859375 17.707031 C 85.804688 18.917969 79.726562 25.988281 79.726562 34.148438 C 79.726562 43.3125 87.183594 50.773438 96.351562 50.773438 C 103.925781 50.773438 110.542969 45.65625 112.441406 38.335938 C 112.476562 38.203125 112.617188 38.121094 112.75 38.15625 C 112.882812 38.191406 112.964844 38.328125 112.929688 38.464844 C 110.96875 46.003906 104.152344 51.273438 96.351562 51.273438 " fill-opacity="1" fill-rule="nonzero"/><path fill="#d3bba3" d="M 27.28125 181.261719 L 169.351562 181.261719 L 169.351562 73.703125 L 27.28125 73.703125 Z M 169.601562 181.765625 L 27.03125 181.765625 C 26.890625 181.765625 26.78125 181.652344 26.78125 181.511719 L 26.78125 73.453125 C 26.78125 73.3125 26.890625 73.199219 27.03125 73.199219 L 169.601562 73.199219 C 169.742188 73.199219 169.851562 73.3125 169.851562 73.453125 L 169.851562 181.511719 C 169.851562 181.652344 169.742188 181.765625 169.601562 181.765625 " fill-opacity="1" fill-rule="nonzero"/><path fill="#e6d0be" d="M 172.859375 179.558594 L 30.285156 179.558594 L 30.285156 71.496094 L 172.859375 71.496094 L 172.859375 179.558594 " fill-opacity="1" fill-rule="nonzero"/><path fill="#f7f1eb" d="M 34.757812 166.421875 L 34.757812 75.972656 L 168.382812 75.972656 L 168.382812 166.421875 L 34.757812 166.421875 " fill-opacity="1" fill-rule="nonzero"/><path fill="#e6d0be" d="M 116.578125 181.703125 L 112.359375 181.703125 C 112.359375 184.867188 109.792969 187.433594 106.625 187.433594 L 96.519531 187.433594 C 93.351562 187.433594 90.785156 184.867188 90.785156 181.703125 L 86.566406 181.703125 L 82.34375 204.132812 L 82.34375 206.007812 L 120.800781 206.007812 L 120.800781 204.132812 L 116.578125 181.703125 " fill-opacity="1" fill-rule="nonzero"/><path fill="#e6d0be" d="M 146.5 85.65625 L 82.34375 85.65625 L 82.34375 82.664062 L 146.5 82.664062 L 146.5 85.65625 " fill-opacity="1" fill-rule="nonzero"/><path fill="#d3bba3" d="M 154.3125 91.808594 L 90.15625 91.808594 L 90.15625 88.816406 L 154.3125 88.816406 L 154.3125 91.808594 " fill-opacity="1" fill-rule="nonzero"/><path fill="#d3bba3" d="M 134.910156 98.402344 L 70.753906 98.402344 L 70.753906 95.410156 L 134.910156 95.410156 L 134.910156 98.402344 " fill-opacity="1" fill-rule="nonzero"/><path fill="#d3bba3" d="M 157.746094 104.550781 L 78.566406 104.550781 L 78.566406 101.558594 L 157.746094 101.558594 L 157.746094 104.550781 " fill-opacity="1" fill-rule="nonzero"/><path fill="#e6d0be" d="M 127.097656 110.675781 L 43.824219 110.675781 L 43.824219 107.683594 L 127.097656 107.683594 L 127.097656 110.675781 " fill-opacity="1" fill-rule="nonzero"/><path fill="#d3bba3" d="M 159.742188 116.828125 L 70.753906 116.828125 L 70.753906 113.832031 L 159.742188 113.832031 L 159.742188 116.828125 " fill-opacity="1" fill-rule="nonzero"/><path fill="#e6d0be" d="M 141.363281 123.507812 L 40.886719 123.507812 L 40.886719 120.519531 L 141.363281 120.519531 L 141.363281 123.507812 " fill-opacity="1" fill-rule="nonzero"/><path fill="#d3bba3" d="M 157.484375 129.277344 L 93.328125 129.277344 L 93.328125 126.285156 L 157.484375 126.285156 L 157.484375 129.277344 " fill-opacity="1" fill-rule="nonzero"/><path fill="#d3bba3" d="M 160.152344 136.253906 L 95.996094 136.253906 L 95.996094 133.261719 L 160.152344 133.261719 L 160.152344 136.253906 " fill-opacity="1" fill-rule="nonzero"/><path fill="#d3bba3" d="M 152.609375 142.402344 L 73.429688 142.402344 L 73.429688 139.414062 L 152.609375 139.414062 L 152.609375 142.402344 " fill-opacity="1" fill-rule="nonzero"/><path fill="#e6d0be" d="M 121.957031 148.527344 L 38.683594 148.527344 L 38.683594 145.535156 L 121.957031 145.535156 L 121.957031 148.527344 " fill-opacity="1" fill-rule="nonzero"/><path fill="#d3bba3" d="M 154.605469 154.679688 L 65.613281 154.679688 L 65.613281 151.6875 L 154.605469 151.6875 L 154.605469 154.679688 " fill-opacity="1" fill-rule="nonzero"/><path fill="#8b865c" d="M 180.230469 73.625 L 132.367188 73.625 L 132.367188 52.640625 L 180.230469 52.640625 L 180.230469 73.625 " fill-opacity="1" fill-rule="nonzero"/><path fill="#84524d" d="M 173.089844 93.066406 C 173.085938 93.53125 172.980469 110.125 172.980469 110.125 L 182.277344 109.683594 L 187.488281 93.066406 L 173.089844 93.066406 " fill-opacity="1" fill-rule="nonzero"/><path fill="#ffffff" d="M 172.269531 108.5625 L 183.105469 108.417969 L 189.121094 127.90625 C 189.121094 127.90625 172.574219 133.257812 172.539062 132.910156 C 172.503906 132.5625 172.269531 108.5625 172.269531 108.5625 " fill-opacity="1" fill-rule="nonzero"/><path fill="#363e44" d="M 180.011719 114.289062 L 175.632812 114.289062 C 175.496094 114.289062 175.382812 114.175781 175.382812 114.035156 C 175.382812 113.898438 175.496094 113.785156 175.632812 113.785156 L 180.011719 113.785156 C 180.152344 113.785156 180.265625 113.898438 180.265625 114.035156 C 180.265625 114.175781 180.152344 114.289062 180.011719 114.289062 " fill-opacity="1" fill-rule="nonzero"/><path fill="#363e44" d="M 179.964844 117.019531 L 175.632812 117.019531 C 175.496094 117.019531 175.382812 116.910156 175.382812 116.769531 C 175.382812 116.628906 175.496094 116.519531 175.632812 116.519531 L 179.964844 116.519531 C 180.101562 116.519531 180.214844 116.628906 180.214844 116.769531 C 180.214844 116.910156 180.101562 117.019531 179.964844 117.019531 " fill-opacity="1" fill-rule="nonzero"/><path fill="#8b865c" d="M 171.226562 95.902344 L 188.28125 95.902344 L 193.152344 71.15625 C 194.371094 64.964844 189.855469 59.117188 183.558594 58.730469 L 174.242188 58.160156 L 171.226562 95.902344 " fill-opacity="1" fill-rule="nonzero"/><path fill="#84524d" d="M 119.890625 63.34375 L 131.589844 74.636719 L 141.511719 67.226562 L 131.957031 54.054688 L 119.890625 63.34375 " fill-opacity="1" fill-rule="nonzero"/><path fill="#ffffff" d="M 129.453125 72.953125 L 135.421875 86.53125 L 151.972656 75.707031 L 140.378906 64.9375 L 129.453125 72.953125 " fill-opacity="1" fill-rule="nonzero"/><path fill="#8b865c" d="M 119.890625 65.878906 L 134.457031 55.433594 L 125.722656 41.96875 C 122.207031 36.554688 114.777344 35.382812 109.769531 39.457031 C 104.675781 43.59375 104.394531 51.273438 109.171875 55.773438 L 119.890625 65.878906 " fill-opacity="1" fill-rule="nonzero"/><path fill="#363e44" d="M 134.8125 73.941406 C 134.730469 73.941406 134.648438 73.898438 134.601562 73.824219 C 134.527344 73.707031 134.5625 73.550781 134.679688 73.476562 L 139.59375 70.359375 C 139.710938 70.285156 139.867188 70.320312 139.941406 70.4375 C 140.015625 70.554688 139.980469 70.707031 139.863281 70.78125 L 134.949219 73.902344 C 134.90625 73.929688 134.859375 73.941406 134.8125 73.941406 " fill-opacity="1" fill-rule="nonzero"/><path fill="#363e44" d="M 135.878906 75.5 C 135.796875 75.5 135.714844 75.460938 135.667969 75.382812 C 135.59375 75.265625 135.628906 75.109375 135.746094 75.039062 L 140.660156 71.917969 C 140.777344 71.84375 140.933594 71.878906 141.007812 71.996094 C 141.082031 72.113281 141.046875 72.269531 140.929688 72.34375 L 136.015625 75.460938 C 135.972656 75.488281 135.925781 75.5 135.878906 75.5 " fill-opacity="1" fill-rule="nonzero"/><path fill="#ffffff" d="M 135.5 55.066406 C 135.5 55.066406 154.765625 55.21875 169.535156 55.4375 L 166.3125 24.996094 C 166.3125 24.996094 151.648438 19.503906 135.421875 20.550781 L 135.5 55.066406 " fill-opacity="1" fill-rule="nonzero"/><path fill="#efbc73" d="M 162.160156 23.460938 L 165.339844 56.253906 L 192.714844 56.871094 C 192.714844 56.871094 193.871094 45.835938 183.921875 34.707031 C 181.617188 32.128906 178.816406 30.042969 175.707031 28.53125 C 172.253906 26.855469 166.609375 24.285156 162.160156 23.460938 " fill-opacity="1" fill-rule="nonzero"/><path fill="#efbc73" d="M 140.796875 20.273438 L 141.863281 55.261719 C 141.863281 55.261719 115.589844 62.289062 115.582031 44.765625 C 115.578125 37.253906 117.636719 31.703125 119.707031 28.019531 C 121.753906 24.378906 125.277344 21.820312 129.375 21.007812 C 132.417969 20.402344 136.464844 19.914062 140.796875 20.273438 " fill-opacity="1" fill-rule="nonzero"/><path fill="#363e44" d="M 129.453125 38.179688 C 129.429688 38.179688 129.410156 38.175781 129.386719 38.171875 C 129.253906 38.136719 129.175781 38 129.210938 37.863281 L 130.398438 33.402344 C 130.433594 33.269531 130.574219 33.191406 130.707031 33.226562 C 130.839844 33.261719 130.917969 33.398438 130.882812 33.53125 L 129.695312 37.992188 C 129.664062 38.105469 129.566406 38.179688 129.453125 38.179688 " fill-opacity="1" fill-rule="nonzero"/><path fill="#363e44" d="M 119.140625 43.542969 C 119.109375 43.542969 119.074219 43.539062 119.042969 43.523438 C 118.914062 43.46875 118.855469 43.320312 118.910156 43.191406 C 118.9375 43.136719 121.480469 37.480469 128.757812 38.152344 C 128.898438 38.164062 129 38.289062 128.988281 38.425781 C 128.972656 38.566406 128.851562 38.667969 128.714844 38.652344 C 121.789062 38.011719 119.394531 43.339844 119.371094 43.390625 C 119.332031 43.488281 119.238281 43.542969 119.140625 43.542969 " fill-opacity="1" fill-rule="nonzero"/><path fill="#84524d" d="M 167.925781 46.46875 C 166.601562 45.601562 161.667969 41.117188 158.765625 42.214844 C 155.839844 43.324219 154.125 46.324219 153.527344 49.394531 C 153.53125 49.40625 153.539062 49.417969 153.546875 49.429688 C 153.75 50.269531 154.1875 51.496094 155.230469 52.480469 C 156.421875 53.601562 157.257812 53.332031 158.695312 54.320312 C 161.125 55.988281 161.085938 58.464844 162.101562 58.234375 C 162.800781 58.074219 162.882812 56.628906 162.617188 55.296875 C 162.347656 53.925781 161.59375 53.152344 161.769531 53.003906 C 161.960938 52.84375 162.625 53.726562 163.550781 54.75 C 163.980469 55.222656 164.359375 57.253906 165.347656 57.175781 C 166.132812 57.117188 166.265625 54.90625 165.351562 53.203125 C 164.703125 52 163.464844 51.519531 163.601562 51.3125 C 163.699219 51.152344 164.429688 51.457031 164.984375 51.90625 C 165.894531 52.648438 166.300781 54.722656 167.210938 54.632812 C 168.097656 54.546875 168.179688 52.613281 167.4375 50.992188 C 166.808594 49.628906 165.40625 49.160156 165.570312 48.898438 C 165.6875 48.714844 166.359375 48.792969 167.65625 49.367188 C 168.738281 49.847656 170.53125 51.480469 171.203125 50.421875 C 171.769531 49.535156 169.925781 47.777344 167.925781 46.46875 " fill-opacity="1" fill-rule="nonzero"/><path fill="#84524d" d="M 130.058594 40.253906 C 127.214844 40.652344 124.8125 42.585938 123.878906 45.300781 C 122.992188 47.886719 123.078125 51.125 127.050781 53.65625 C 134.929688 58.667969 156.296875 50.023438 156.296875 50.023438 L 160.304688 42.082031 C 150.488281 39.71875 139.652344 38.921875 130.058594 40.253906 " fill-opacity="1" fill-rule="nonzero"/><g clip-path="url(#8932576e9f)"><path fill="#e6d0be" d="M 197.882812 57.972656 C 197.214844 59.398438 195.785156 60.308594 194.207031 60.308594 L 168.914062 60.308594 L 180.242188 36.101562 L 208.117188 36.101562 L 197.882812 57.972656 " fill-opacity="1" fill-rule="nonzero"/></g><path fill="#e6d0be" d="M 152.3125 57.878906 C 152.3125 59.226562 153.40625 60.320312 154.753906 60.320312 L 178.078125 60.320312 L 179.21875 57.878906 L 152.3125 57.878906 " fill-opacity="1" fill-rule="nonzero"/><path fill="#84524d" d="M 205.050781 47.449219 C 204.964844 48.355469 204.816406 49.085938 203.242188 48.929688 C 201.671875 48.777344 199.269531 47.796875 199.359375 46.890625 C 199.449219 45.980469 201.992188 45.488281 203.566406 45.644531 C 205.136719 45.796875 205.140625 46.539062 205.050781 47.449219 " fill-opacity="1" fill-rule="nonzero"/><path fill="#84524d" d="M 198.285156 49.222656 C 198.375 48.316406 200.921875 47.820312 202.492188 47.976562 C 204.066406 48.128906 204.070312 48.875 203.980469 49.78125 L 198.285156 49.222656 " fill-opacity="1" fill-rule="nonzero"/><path fill="#84524d" d="M 203.980469 49.78125 C 203.890625 50.691406 203.742188 51.417969 202.171875 51.265625 C 200.597656 51.109375 198.195312 50.132812 198.289062 49.222656 L 203.980469 49.78125 " fill-opacity="1" fill-rule="nonzero"/><path fill="#84524d" d="M 197.214844 51.558594 C 197.304688 50.648438 199.851562 50.15625 201.421875 50.308594 C 202.996094 50.464844 203 51.207031 202.910156 52.117188 L 197.214844 51.558594 " fill-opacity="1" fill-rule="nonzero"/><path fill="#84524d" d="M 202.910156 52.113281 C 202.820312 53.023438 202.671875 53.753906 201.097656 53.597656 C 199.527344 53.441406 197.125 52.464844 197.214844 51.558594 L 202.910156 52.113281 " fill-opacity="1" fill-rule="nonzero"/><path fill="#84524d" d="M 197.34375 53.667969 C 197.414062 52.949219 199.4375 52.554688 200.6875 52.679688 C 201.9375 52.800781 201.941406 53.390625 201.871094 54.113281 L 197.34375 53.667969 " fill-opacity="1" fill-rule="nonzero"/><path fill="#84524d" d="M 201.871094 54.113281 C 201.800781 54.835938 201.679688 55.414062 200.429688 55.292969 C 199.179688 55.167969 197.273438 54.390625 197.34375 53.667969 L 201.871094 54.113281 " fill-opacity="1" fill-rule="nonzero"/><path fill="#84524d" d="M 146.140625 10.367188 C 146.78125 11.230469 146.703125 12.378906 145.964844 12.921875 C 145.230469 13.46875 144.113281 13.210938 143.46875 12.34375 C 142.828125 11.476562 142.90625 10.332031 143.640625 9.789062 C 144.378906 9.242188 145.496094 9.5 146.140625 10.367188 " fill-opacity="1" fill-rule="nonzero"/><path fill="#84524d" d="M 154.0625 9.964844 C 153.511719 10.890625 153.703125 12.019531 154.492188 12.488281 C 155.28125 12.957031 156.367188 12.585938 156.917969 11.660156 C 157.46875 10.734375 157.273438 9.601562 156.484375 9.132812 C 155.699219 8.664062 154.613281 9.035156 154.0625 9.964844 " fill-opacity="1" fill-rule="nonzero"/><path fill="#84524d" d="M 149.714844 25.070312 C 147.789062 24.984375 146.300781 23.351562 146.386719 21.425781 L 146.710938 11.53125 L 153.679688 11.851562 L 153.359375 21.746094 C 153.269531 23.671875 151.636719 25.160156 149.714844 25.070312 " fill-opacity="1" fill-rule="nonzero"/><path fill="#363e44" d="M 150.960938 19.515625 C 145.371094 19.84375 145.164062 10.511719 145.164062 10.511719 L 155.070312 10.175781 C 155.070312 10.175781 156.382812 19.195312 150.960938 19.515625 " fill-opacity="1" fill-rule="nonzero"/><path fill="#363e44" d="M 150.636719 7.804688 C 150.636719 9.769531 149.046875 11.363281 147.082031 11.363281 C 145.121094 11.363281 143.527344 9.769531 143.527344 7.804688 C 143.527344 5.84375 145.121094 4.25 147.082031 4.25 C 149.046875 4.25 150.636719 5.84375 150.636719 7.804688 " fill-opacity="1" fill-rule="nonzero"/><path fill="#84524d" d="M 154.964844 10.890625 C 155.125 14 153.109375 12.363281 150.464844 12.5 C 147.820312 12.632812 145.550781 14.484375 145.390625 11.378906 C 145.234375 8.273438 147.25 6.496094 149.894531 6.363281 C 152.535156 6.230469 154.808594 7.785156 154.964844 10.890625 " fill-opacity="1" fill-rule="nonzero"/><path fill="#363e44" d="M 154.964844 12.652344 C 154.949219 12.652344 154.9375 12.648438 154.921875 12.648438 C 154.785156 12.621094 154.691406 12.492188 154.71875 12.355469 C 154.804688 11.882812 154.835938 11.394531 154.8125 10.90625 C 154.789062 10.46875 154.722656 10.035156 154.613281 9.621094 C 154.578125 9.488281 154.65625 9.347656 154.792969 9.3125 C 154.925781 9.277344 155.0625 9.359375 155.097656 9.492188 C 155.214844 9.941406 155.289062 10.40625 155.3125 10.878906 C 155.339844 11.40625 155.304688 11.933594 155.214844 12.445312 C 155.191406 12.566406 155.085938 12.652344 154.964844 12.652344 " fill-opacity="1" fill-rule="nonzero"/><path fill="#363e44" d="M 145.539062 13.09375 C 145.429688 13.09375 145.328125 13.023438 145.296875 12.914062 C 145.15625 12.421875 145.074219 11.910156 145.046875 11.390625 C 145.023438 10.910156 145.046875 10.429688 145.121094 9.964844 C 145.144531 9.828125 145.273438 9.734375 145.410156 9.753906 C 145.546875 9.777344 145.640625 9.90625 145.621094 10.042969 C 145.550781 10.476562 145.523438 10.917969 145.546875 11.367188 C 145.574219 11.847656 145.652344 12.324219 145.78125 12.777344 C 145.816406 12.910156 145.742188 13.050781 145.605469 13.085938 C 145.585938 13.09375 145.5625 13.09375 145.539062 13.09375 " fill-opacity="1" fill-rule="nonzero"/><path fill="#363e44" d="M 150.511719 12.871094 C 150.4375 12.871094 150.363281 12.835938 150.3125 12.769531 C 150.226562 12.660156 150.25 12.503906 150.359375 12.417969 C 150.464844 12.335938 150.496094 12.277344 150.496094 12.257812 C 150.496094 12.238281 150.460938 12.191406 150.433594 12.148438 C 150.367188 12.058594 150.277344 11.933594 150.238281 11.75 C 150.207031 11.585938 150.21875 11.410156 150.28125 11.234375 C 150.328125 11.101562 150.472656 11.035156 150.601562 11.078125 C 150.734375 11.125 150.800781 11.265625 150.757812 11.398438 C 150.722656 11.488281 150.714844 11.574219 150.730469 11.648438 C 150.75 11.730469 150.789062 11.785156 150.839844 11.855469 C 150.910156 11.957031 151 12.082031 150.996094 12.265625 C 150.996094 12.464844 150.882812 12.648438 150.664062 12.816406 C 150.617188 12.851562 150.566406 12.871094 150.511719 12.871094 " fill-opacity="1" fill-rule="nonzero"/><path fill="#ffffff" d="M 149.765625 14.246094 C 149.550781 14.246094 149.230469 14.203125 148.917969 14 C 148.71875 13.871094 148.546875 13.691406 148.425781 13.484375 C 148.355469 13.367188 148.394531 13.210938 148.515625 13.140625 C 148.632812 13.070312 148.789062 13.109375 148.859375 13.230469 C 148.917969 13.328125 149.019531 13.46875 149.191406 13.578125 C 149.445312 13.746094 149.714844 13.75 149.847656 13.738281 C 149.988281 13.730469 150.109375 13.832031 150.121094 13.972656 C 150.128906 14.109375 150.027344 14.230469 149.886719 14.242188 C 149.855469 14.242188 149.8125 14.246094 149.765625 14.246094 " fill-opacity="1" fill-rule="nonzero"/><path fill="#363e44" d="M 144.761719 9.75 C 144.761719 9.75 147.320312 10.128906 149.972656 7 C 149.972656 7 154.90625 13.449219 158.699219 5.671875 C 158.699219 5.671875 156.476562 6.652344 155.285156 5.105469 C 153.386719 2.640625 148.835938 0.648438 147.035156 5.199219 L 144.761719 9.75 " fill-opacity="1" fill-rule="nonzero"/><path fill="#ffffff" d="M 153.324219 10.113281 L 153.3125 10.113281 C 153.308594 10.136719 153.292969 10.167969 153.269531 10.167969 C 153.238281 10.207031 153.230469 10.265625 153.210938 10.304688 C 153.175781 10.375 153.070312 10.316406 153.101562 10.25 C 153.125 10.199219 152.964844 10.296875 152.894531 10.328125 C 152.667969 10.429688 152.4375 10.519531 152.207031 10.601562 C 152.097656 10.640625 151.992188 10.679688 151.878906 10.714844 C 151.792969 10.742188 151.503906 10.847656 151.476562 10.835938 C 151.191406 11.125 151.039062 11.394531 151.039062 11.394531 C 151.039062 11.394531 151.480469 11.5625 152.039062 11.566406 L 152.042969 11.542969 C 152.050781 11.46875 153.316406 11.101562 153.351562 11.15625 C 153.878906 10.78125 154.167969 10.277344 154.167969 10.277344 C 154.167969 10.277344 153.804688 10.140625 153.324219 10.113281 " fill-opacity="1" fill-rule="nonzero"/><path fill="#363e44" d="M 152.390625 10.234375 C 152.011719 10.367188 151.703125 10.609375 151.480469 10.835938 C 151.519531 11.074219 151.644531 11.300781 151.851562 11.460938 C 151.90625 11.503906 151.960938 11.539062 152.019531 11.566406 C 152.269531 11.566406 152.546875 11.535156 152.820312 11.441406 C 153.015625 11.371094 153.191406 11.273438 153.34375 11.160156 C 153.535156 10.828125 153.515625 10.425781 153.3125 10.113281 C 153.027344 10.097656 152.707031 10.121094 152.390625 10.234375 " fill-opacity="1" fill-rule="nonzero"/><path fill="#ffffff" d="M 147.042969 10.515625 L 147.054688 10.515625 C 147.0625 10.539062 147.078125 10.570312 147.105469 10.566406 C 147.136719 10.601562 147.152344 10.660156 147.175781 10.695312 C 147.214844 10.761719 147.316406 10.695312 147.277344 10.628906 C 147.25 10.585938 147.421875 10.664062 147.492188 10.6875 C 147.726562 10.765625 147.964844 10.832031 148.203125 10.890625 C 148.316406 10.917969 148.429688 10.945312 148.539062 10.96875 C 148.632812 10.988281 148.929688 11.066406 148.953125 11.050781 C 149.265625 11.3125 149.445312 11.5625 149.445312 11.5625 C 149.445312 11.5625 149.023438 11.777344 148.46875 11.832031 L 148.464844 11.808594 C 148.449219 11.738281 147.148438 11.5 147.117188 11.558594 C 146.558594 11.238281 146.222656 10.765625 146.222656 10.765625 C 146.222656 10.765625 146.566406 10.59375 147.042969 10.515625 " fill-opacity="1" fill-rule="nonzero"/><path fill="#363e44" d="M 147.984375 10.542969 C 148.378906 10.640625 148.703125 10.847656 148.949219 11.050781 C 148.933594 11.292969 148.832031 11.53125 148.644531 11.710938 C 148.59375 11.753906 148.542969 11.796875 148.484375 11.832031 C 148.238281 11.859375 147.957031 11.855469 147.679688 11.785156 C 147.476562 11.738281 147.292969 11.65625 147.125 11.5625 C 146.90625 11.25 146.882812 10.847656 147.054688 10.515625 C 147.332031 10.472656 147.660156 10.464844 147.984375 10.542969 " fill-opacity="1" fill-rule="nonzero"/><path fill="#efbc73" d="M 62.367188 47.414062 L 0.976562 47.414062 L 0.976562 18.304688 L 62.367188 18.304688 L 62.367188 47.414062 " fill-opacity="1" fill-rule="nonzero"/><path fill="#ffffff" d="M 50.535156 28.21875 L 11.992188 28.21875 L 11.992188 25.226562 L 50.535156 25.226562 L 50.535156 28.21875 " fill-opacity="1" fill-rule="nonzero"/><path fill="#ffffff" d="M 55.226562 34.371094 L 16.6875 34.371094 L 16.6875 31.378906 L 55.226562 31.378906 L 55.226562 34.371094 " fill-opacity="1" fill-rule="nonzero"/><path fill="#ffffff" d="M 43.570312 40.964844 L 5.027344 40.964844 L 5.027344 37.972656 L 43.570312 37.972656 L 43.570312 40.964844 " fill-opacity="1" fill-rule="nonzero"/><path fill="#efbc73" d="M 62.367188 87.492188 L 0.976562 87.492188 L 0.976562 58.382812 L 62.367188 58.382812 L 62.367188 87.492188 " fill-opacity="1" fill-rule="nonzero"/><path fill="#ffffff" d="M 50.535156 68.296875 L 11.992188 68.296875 L 11.992188 65.304688 L 50.535156 65.304688 L 50.535156 68.296875 " fill-opacity="1" fill-rule="nonzero"/><path fill="#ffffff" d="M 55.226562 74.449219 L 16.6875 74.449219 L 16.6875 71.457031 L 55.226562 71.457031 L 55.226562 74.449219 " fill-opacity="1" fill-rule="nonzero"/><path fill="#ffffff" d="M 43.570312 81.042969 L 5.027344 81.042969 L 5.027344 78.050781 L 43.570312 78.050781 L 43.570312 81.042969 " fill-opacity="1" fill-rule="nonzero"/><path fill="#efbc73" d="M 62.367188 127.824219 L 0.976562 127.824219 L 0.976562 98.714844 L 62.367188 98.714844 L 62.367188 127.824219 " fill-opacity="1" fill-rule="nonzero"/><path fill="#ffffff" d="M 50.535156 108.628906 L 11.992188 108.628906 L 11.992188 105.636719 L 50.535156 105.636719 L 50.535156 108.628906 " fill-opacity="1" fill-rule="nonzero"/><path fill="#ffffff" d="M 55.226562 114.78125 L 16.6875 114.78125 L 16.6875 111.789062 L 55.226562 111.789062 L 55.226562 114.78125 " fill-opacity="1" fill-rule="nonzero"/><path fill="#ffffff" d="M 43.570312 121.375 L 5.027344 121.375 L 5.027344 118.382812 L 43.570312 118.382812 L 43.570312 121.375 " fill-opacity="1" fill-rule="nonzero"/><path fill="#e2a18d" d="M 91.546875 203.316406 L 104.253906 203.316406 L 106.921875 169.644531 L 91.101562 169.644531 L 91.546875 203.316406 " fill-opacity="1" fill-rule="nonzero"/><path fill="#ffffff" d="M 82.570312 207.691406 L 104.730469 207.691406 L 104.730469 197.554688 L 92.695312 197.554688 C 87.105469 197.554688 82.570312 202.085938 82.570312 207.679688 L 82.570312 207.691406 " fill-opacity="1" fill-rule="nonzero"/><path fill="#363e44" d="M 92.871094 199.824219 C 92.808594 199.824219 92.742188 199.800781 92.695312 199.753906 L 90.738281 197.796875 C 90.640625 197.699219 90.640625 197.539062 90.738281 197.441406 C 90.835938 197.34375 90.996094 197.34375 91.09375 197.441406 L 93.050781 199.398438 C 93.148438 199.496094 93.148438 199.652344 93.050781 199.753906 C 93 199.800781 92.9375 199.824219 92.871094 199.824219 " fill-opacity="1" fill-rule="nonzero"/><path fill="#363e44" d="M 90.648438 200.492188 C 90.585938 200.492188 90.519531 200.46875 90.46875 200.417969 L 88.515625 198.464844 C 88.417969 198.367188 88.417969 198.207031 88.515625 198.109375 C 88.613281 198.011719 88.773438 198.011719 88.871094 198.109375 L 90.828125 200.0625 C 90.925781 200.160156 90.925781 200.320312 90.828125 200.417969 C 90.777344 200.46875 90.714844 200.492188 90.648438 200.492188 " fill-opacity="1" fill-rule="nonzero"/><path fill="#e2a18d" d="M 59.8125 199.101562 L 72.101562 201.265625 L 79.40625 172.503906 L 63.8125 169.832031 L 59.8125 199.101562 " fill-opacity="1" fill-rule="nonzero"/><path fill="#d3bba3" d="M 50.902344 207.691406 L 73.066406 207.691406 L 73.066406 197.554688 L 61.027344 197.554688 C 55.4375 197.554688 50.902344 202.085938 50.902344 207.679688 L 50.902344 207.691406 " fill-opacity="1" fill-rule="nonzero"/><path fill="#363e44" d="M 61.203125 199.824219 C 61.140625 199.824219 61.078125 199.800781 61.027344 199.753906 L 59.074219 197.796875 C 58.972656 197.699219 58.972656 197.539062 59.074219 197.441406 C 59.171875 197.34375 59.328125 197.34375 59.425781 197.441406 L 61.382812 199.398438 C 61.480469 199.496094 61.480469 199.652344 61.382812 199.753906 C 61.332031 199.800781 61.269531 199.824219 61.203125 199.824219 " fill-opacity="1" fill-rule="nonzero"/><path fill="#363e44" d="M 58.984375 200.492188 C 58.917969 200.492188 58.855469 200.46875 58.804688 200.417969 L 56.847656 198.464844 C 56.75 198.367188 56.75 198.207031 56.847656 198.109375 C 56.945312 198.011719 57.105469 198.011719 57.203125 198.109375 L 59.160156 200.0625 C 59.257812 200.160156 59.257812 200.320312 59.160156 200.417969 C 59.109375 200.46875 59.046875 200.492188 58.984375 200.492188 " fill-opacity="1" fill-rule="nonzero"/><path fill="#363e44" d="M 106.09375 114.492188 C 109.375 123.234375 111.019531 133.117188 111.613281 142.878906 C 112.742188 161.386719 109.074219 180.316406 106.820312 193.375 C 101.386719 193.375 95.953125 193.375 90.523438 193.375 C 90.015625 179.835938 89.066406 166.292969 88.558594 152.753906 C 84.285156 166.222656 80.457031 179.691406 76.183594 193.160156 C 70.390625 193.160156 64.597656 193.160156 58.804688 193.160156 C 59.5625 180.585938 61.703125 164.738281 67.058594 147.105469 C 71.023438 134.0625 75.863281 122.941406 80.53125 113.867188 C 90.179688 114.035156 97.417969 114.433594 106.09375 114.492188 " fill-opacity="1" fill-rule="nonzero"/><path fill="#e2a18d" d="M 110.398438 91.273438 C 114.390625 95.542969 126.636719 107.207031 121.949219 111.957031 C 118.074219 115.882812 106.621094 104.035156 102.394531 100.03125 C 105.0625 97.113281 107.730469 94.195312 110.398438 91.273438 " fill-opacity="1" fill-rule="nonzero"/><path fill="#e2a18d" d="M 75.222656 91.585938 C 64.492188 96.042969 59.253906 99.824219 61.273438 103.746094 C 62.441406 106.023438 70.054688 105.640625 78.707031 102.570312 C 77.835938 99.003906 76.371094 95.878906 75.222656 91.585938 " fill-opacity="1" fill-rule="nonzero"/><path fill="#e2a18d" d="M 71.957031 100.929688 L 71.960938 100.925781 C 68.117188 91.140625 65.578125 84.125 64.707031 81.988281 C 64.617188 81.765625 64.457031 81.371094 64.121094 80.929688 C 62.867188 79.304688 61.164062 79.6875 59.066406 78.578125 C 56.6875 77.320312 56.058594 75.265625 55.421875 75.523438 C 54.976562 75.703125 54.996094 76.542969 55.65625 78.109375 C 55.019531 76.980469 54.085938 75.484375 53.460938 75.835938 C 52.761719 76.285156 53.652344 78.171875 54.246094 79.285156 C 53.527344 77.9375 52.742188 77.433594 52.441406 77.71875 C 51.972656 78.164062 52.285156 79.339844 53.304688 81.085938 C 52.265625 80.078125 51.863281 79.988281 51.660156 80.304688 C 51.289062 80.878906 52.152344 82.300781 53.109375 83.4375 C 54.1875 84.71875 55.46875 85.339844 56.28125 85.710938 L 56.285156 85.710938 C 58.265625 92.84375 59.527344 97.433594 61.011719 103.226562 C 61.316406 104.414062 62.570312 105.085938 63.722656 104.679688 C 66.847656 103.589844 68.585938 102.917969 71.957031 100.929688 " fill-opacity="1" fill-rule="nonzero"/><path fill="#363e44" d="M 70.5625 97.597656 C 70.460938 97.597656 70.367188 97.535156 70.328125 97.4375 C 69.910156 96.355469 69.507812 95.316406 69.128906 94.324219 C 69.078125 94.195312 69.144531 94.050781 69.273438 94 C 69.402344 93.949219 69.546875 94.015625 69.597656 94.144531 C 69.976562 95.136719 70.378906 96.175781 70.796875 97.253906 C 70.847656 97.386719 70.78125 97.53125 70.652344 97.582031 C 70.625 97.59375 70.59375 97.597656 70.5625 97.597656 " fill-opacity="1" fill-rule="nonzero"/><path fill="#e2a18d" d="M 60.753906 80.046875 C 59.9375 77.507812 60.183594 76.421875 60.589844 76.304688 C 61.273438 76.113281 62.851562 77.992188 64.507812 81.550781 C 63.421875 81.222656 61.835938 80.371094 60.753906 80.046875 " fill-opacity="1" fill-rule="nonzero"/><path fill="#363e44" d="M 60.394531 84.71875 C 60.289062 84.71875 60.1875 84.652344 60.15625 84.542969 C 60.023438 84.125 59.734375 83.527344 59.128906 83.039062 C 58.273438 82.347656 57.304688 82.320312 56.929688 82.34375 C 56.789062 82.355469 56.671875 82.246094 56.664062 82.109375 C 56.65625 81.96875 56.761719 81.851562 56.898438 81.84375 C 57.332031 81.816406 58.453125 81.84375 59.445312 82.644531 C 60.148438 83.214844 60.480469 83.910156 60.632812 84.390625 C 60.675781 84.523438 60.601562 84.664062 60.46875 84.707031 C 60.445312 84.714844 60.417969 84.71875 60.394531 84.71875 " fill-opacity="1" fill-rule="nonzero"/><path fill="#363e44" d="M 63.042969 80.355469 C 63.003906 80.355469 62.960938 80.34375 62.921875 80.324219 C 62.4375 80.058594 61.882812 79.910156 61.296875 79.753906 C 61.007812 79.675781 60.710938 79.59375 60.402344 79.5 C 60.269531 79.457031 60.195312 79.316406 60.238281 79.183594 C 60.277344 79.050781 60.421875 78.976562 60.550781 79.019531 C 60.851562 79.113281 61.144531 79.191406 61.425781 79.269531 C 62.042969 79.433594 62.628906 79.589844 63.164062 79.882812 C 63.285156 79.949219 63.332031 80.101562 63.265625 80.222656 C 63.21875 80.308594 63.132812 80.355469 63.042969 80.355469 " fill-opacity="1" fill-rule="nonzero"/><path fill="#363e44" d="M 57.457031 79.980469 C 57.414062 79.980469 57.371094 79.972656 57.332031 79.949219 C 57.035156 79.777344 56.757812 79.578125 56.5 79.359375 C 56.128906 79.039062 55.800781 78.667969 55.523438 78.257812 C 55.449219 78.140625 55.476562 77.984375 55.59375 77.910156 C 55.707031 77.832031 55.863281 77.863281 55.941406 77.976562 C 56.191406 78.347656 56.492188 78.6875 56.828125 78.976562 C 57.0625 79.179688 57.316406 79.359375 57.582031 79.515625 C 57.703125 79.585938 57.742188 79.738281 57.675781 79.859375 C 57.628906 79.9375 57.542969 79.980469 57.457031 79.980469 " fill-opacity="1" fill-rule="nonzero"/><path fill="#363e44" d="M 55.960938 80.980469 C 55.917969 80.980469 55.875 80.96875 55.832031 80.945312 C 55.539062 80.777344 55.261719 80.578125 55.003906 80.355469 C 54.632812 80.035156 54.304688 79.664062 54.027344 79.253906 C 53.949219 79.140625 53.980469 78.984375 54.097656 78.90625 C 54.210938 78.828125 54.367188 78.859375 54.445312 78.972656 C 54.695312 79.347656 54.996094 79.683594 55.332031 79.976562 C 55.566406 80.175781 55.820312 80.355469 56.085938 80.511719 C 56.207031 80.582031 56.246094 80.734375 56.175781 80.855469 C 56.128906 80.9375 56.046875 80.980469 55.960938 80.980469 " fill-opacity="1" fill-rule="nonzero"/><path fill="#363e44" d="M 55.0625 82.976562 C 55.019531 82.976562 54.976562 82.964844 54.933594 82.941406 C 54.640625 82.769531 54.363281 82.574219 54.105469 82.351562 C 53.734375 82.03125 53.40625 81.660156 53.128906 81.25 C 53.050781 81.136719 53.082031 80.980469 53.199219 80.902344 C 53.3125 80.824219 53.46875 80.855469 53.546875 80.96875 C 53.796875 81.34375 54.09375 81.679688 54.433594 81.972656 C 54.667969 82.171875 54.921875 82.351562 55.1875 82.507812 C 55.308594 82.578125 55.347656 82.730469 55.277344 82.851562 C 55.230469 82.933594 55.148438 82.976562 55.0625 82.976562 " fill-opacity="1" fill-rule="nonzero"/><path fill="#ffffff" d="M 113.640625 90.476562 C 113.640625 90.476562 102.945312 85.394531 93.128906 86.269531 C 83.308594 87.148438 73.710938 91.003906 73.710938 91.003906 L 78.402344 102.921875 L 77 117.941406 L 111.710938 114.589844 L 109.082031 103.667969 L 113.640625 90.476562 " fill-opacity="1" fill-rule="nonzero"/><path fill="#e2a18d" d="M 96.066406 69.523438 C 95.816406 69.390625 93.425781 68.171875 91.242188 69.253906 C 89.617188 70.058594 88.820312 71.617188 87.878906 74.4375 C 86.773438 77.757812 86.578125 79.898438 87.242188 80.917969 C 88.300781 82.53125 93.628906 82.082031 96.445312 79.941406 C 98.476562 78.394531 99.414062 75.714844 98.980469 73.183594 C 98.542969 70.65625 96.222656 69.605469 96.066406 69.523438 " fill-opacity="1" fill-rule="nonzero"/><path fill="#e2a18d" d="M 92.878906 91.269531 L 93.109375 91.269531 C 94.757812 91.269531 96.09375 89.933594 96.09375 88.285156 L 96.09375 79.09375 C 96.09375 77.445312 94.757812 76.109375 93.109375 76.109375 L 92.878906 76.109375 C 91.234375 76.109375 89.898438 77.445312 89.898438 79.09375 L 89.898438 88.285156 C 89.898438 89.933594 91.234375 91.269531 92.878906 91.269531 " fill-opacity="1" fill-rule="nonzero"/><path fill="#363e44" d="M 90.183594 82.140625 C 90.105469 82.140625 90.03125 82.136719 89.957031 82.136719 C 89.816406 82.132812 89.707031 82.015625 89.710938 81.878906 C 89.714844 81.742188 89.824219 81.632812 89.960938 81.632812 L 89.96875 81.632812 C 91.8125 81.679688 94.488281 81.113281 96.292969 79.742188 C 96.402344 79.65625 96.558594 79.679688 96.644531 79.789062 C 96.726562 79.898438 96.707031 80.058594 96.597656 80.140625 C 94.765625 81.53125 92.105469 82.140625 90.183594 82.140625 " fill-opacity="1" fill-rule="nonzero"/><path fill="#363e44" d="M 98.707031 69.183594 C 98.011719 71.789062 99.554688 74.460938 102.160156 75.160156 C 104.761719 75.855469 107.4375 74.308594 108.132812 71.707031 C 108.828125 69.101562 107.285156 66.429688 104.679688 65.734375 C 102.078125 65.035156 99.402344 66.582031 98.707031 69.183594 " fill-opacity="1" fill-rule="nonzero"/><path fill="#363e44" d="M 98.859375 70.613281 L 98.863281 70.613281 Z M 103.039062 68.4375 C 102.359375 68.4375 101.714844 68.539062 101.132812 68.746094 C 100.054688 69.125 99.335938 69.8125 99.101562 70.679688 C 98.871094 71.542969 99.152344 72.496094 99.894531 73.363281 C 100.660156 74.257812 101.816406 74.945312 103.148438 75.304688 C 105.867188 76.03125 108.476562 75.136719 108.964844 73.316406 C 109.195312 72.449219 108.914062 71.496094 108.171875 70.628906 C 107.40625 69.734375 106.25 69.046875 104.917969 68.691406 C 104.285156 68.519531 103.648438 68.4375 103.039062 68.4375 Z M 105.011719 76.054688 C 104.371094 76.054688 103.695312 75.96875 103.019531 75.789062 C 101.589844 75.40625 100.34375 74.660156 99.515625 73.691406 C 98.660156 72.695312 98.34375 71.578125 98.617188 70.546875 C 98.894531 69.515625 99.726562 68.710938 100.960938 68.273438 C 102.167969 67.847656 103.617188 67.820312 105.050781 68.203125 C 106.476562 68.585938 107.722656 69.332031 108.554688 70.300781 C 109.40625 71.300781 109.726562 72.414062 109.449219 73.445312 C 109.019531 75.0625 107.195312 76.054688 105.011719 76.054688 " fill-opacity="1" fill-rule="nonzero"/><path fill="#363e44" d="M 101.53125 67.828125 C 100.882812 67.828125 100.289062 68.015625 99.824219 68.410156 C 99.136719 68.984375 98.824219 69.929688 98.9375 71.066406 C 99.054688 72.238281 99.609375 73.460938 100.5 74.515625 C 102.316406 76.667969 104.964844 77.425781 106.40625 76.207031 C 107.09375 75.628906 107.40625 74.683594 107.292969 73.550781 C 107.175781 72.378906 106.621094 71.152344 105.730469 70.097656 C 104.503906 68.644531 102.890625 67.828125 101.53125 67.828125 Z M 104.710938 77.28125 C 103.195312 77.28125 101.441406 76.410156 100.117188 74.839844 C 99.160156 73.707031 98.5625 72.386719 98.4375 71.117188 C 98.304688 69.8125 98.683594 68.710938 99.496094 68.023438 C 101.152344 66.628906 104.121094 67.414062 106.113281 69.777344 C 107.070312 70.90625 107.664062 72.230469 107.792969 73.5 C 107.925781 74.804688 107.546875 75.902344 106.734375 76.589844 C 106.179688 77.058594 105.472656 77.28125 104.710938 77.28125 " fill-opacity="1" fill-rule="nonzero"/><path fill="#363e44" d="M 90.03125 70.136719 C 92.09375 67.160156 97.472656 67.761719 99.714844 70.390625 C 102.109375 73.207031 101.308594 77.445312 99.714844 79.539062 C 98.769531 80.785156 96.78125 82.371094 95.796875 81.578125 C 94.609375 80.621094 96.402344 78.480469 95.21875 75.242188 C 94.304688 72.742188 90.847656 72.15625 90.03125 70.136719 " fill-opacity="1" fill-rule="nonzero"/><path fill="#e2a18d" d="M 94.097656 75.894531 C 93.195312 76.714844 93.027344 77.996094 93.722656 78.757812 C 94.414062 79.519531 95.703125 79.46875 96.605469 78.652344 C 97.503906 77.832031 97.675781 76.550781 96.980469 75.789062 C 96.289062 75.03125 94.996094 75.078125 94.097656 75.894531 " fill-opacity="1" fill-rule="nonzero"/><path fill="#363e44" d="M 95.808594 78.363281 C 95.726562 78.363281 95.644531 78.320312 95.597656 78.246094 C 95.523438 78.128906 95.558594 77.972656 95.671875 77.898438 C 95.722656 77.867188 95.773438 77.828125 95.820312 77.789062 C 96.171875 77.464844 96.25 76.972656 95.992188 76.6875 C 95.933594 76.625 95.859375 76.574219 95.777344 76.542969 C 95.644531 76.492188 95.582031 76.34375 95.632812 76.214844 C 95.683594 76.085938 95.828125 76.023438 95.957031 76.074219 C 96.117188 76.132812 96.25 76.226562 96.363281 76.351562 C 96.808594 76.839844 96.714844 77.652344 96.15625 78.160156 C 96.089844 78.21875 96.019531 78.273438 95.941406 78.324219 C 95.902344 78.351562 95.855469 78.363281 95.808594 78.363281 " fill-opacity="1" fill-rule="nonzero"/><path fill="#ffffff" d="M 93.859375 75.441406 C 93.859375 75.441406 93.085938 74.8125 92.046875 74.617188 C 91.828125 74.574219 91.90625 76.421875 92.136719 76.359375 C 93.140625 76.097656 93.859375 75.441406 93.859375 75.441406 " fill-opacity="1" fill-rule="nonzero"/><path fill="#363e44" d="M 91.355469 74.558594 C 91.59375 74.554688 91.824219 74.578125 92.046875 74.617188 C 92.386719 75.160156 92.402344 75.820312 92.136719 76.359375 C 91.910156 76.421875 91.664062 76.460938 91.410156 76.46875 C 90.042969 76.511719 88.90625 75.589844 88.90625 75.589844 C 88.90625 75.589844 89.984375 74.601562 91.355469 74.558594 " fill-opacity="1" fill-rule="nonzero"/><path fill="#363e44" d="M 89.136719 78.9375 C 88.859375 78.9375 88.585938 78.808594 88.398438 78.582031 C 88.3125 78.472656 88.328125 78.316406 88.433594 78.226562 C 88.539062 78.140625 88.699219 78.15625 88.785156 78.261719 C 88.914062 78.417969 89.121094 78.472656 89.289062 78.402344 C 89.492188 78.316406 89.53125 78.058594 89.53125 78.058594 C 89.550781 77.921875 89.675781 77.824219 89.8125 77.84375 C 89.949219 77.863281 90.046875 77.984375 90.03125 78.121094 C 90.027344 78.144531 89.960938 78.664062 89.484375 78.867188 C 89.371094 78.914062 89.253906 78.9375 89.136719 78.9375 " fill-opacity="1" fill-rule="nonzero"/><path fill="#363e44" d="M 87.558594 77.046875 C 87.488281 77.046875 87.417969 77.015625 87.367188 76.960938 C 87.058594 76.597656 86.953125 76.292969 87.054688 76.035156 C 87.125 75.855469 87.261719 75.773438 87.386719 75.699219 C 87.460938 75.65625 87.542969 75.609375 87.628906 75.527344 C 87.75 75.410156 87.847656 75.257812 87.910156 75.074219 C 87.957031 74.941406 88.097656 74.875 88.226562 74.917969 C 88.359375 74.960938 88.429688 75.105469 88.386719 75.238281 C 88.296875 75.5 88.15625 75.71875 87.972656 75.894531 C 87.84375 76.011719 87.726562 76.082031 87.640625 76.132812 C 87.589844 76.164062 87.527344 76.199219 87.523438 76.214844 C 87.523438 76.214844 87.484375 76.324219 87.75 76.632812 C 87.839844 76.738281 87.828125 76.898438 87.722656 76.988281 C 87.675781 77.027344 87.617188 77.046875 87.558594 77.046875 " fill-opacity="1" fill-rule="nonzero"/><path fill="#363e44" d="M 92.875 112.144531 C 92.789062 112.144531 92.707031 112.101562 92.660156 112.027344 L 90.835938 109.046875 C 90.761719 108.929688 90.800781 108.773438 90.917969 108.703125 C 91.039062 108.628906 91.191406 108.667969 91.261719 108.785156 L 93.089844 111.765625 C 93.160156 111.882812 93.125 112.035156 93.003906 112.109375 C 92.964844 112.132812 92.917969 112.144531 92.875 112.144531 " fill-opacity="1" fill-rule="nonzero"/><path fill="#363e44" d="M 93.90625 111.507812 C 93.820312 111.507812 93.738281 111.464844 93.691406 111.390625 L 91.867188 108.410156 C 91.792969 108.292969 91.832031 108.136719 91.949219 108.066406 C 92.066406 107.992188 92.222656 108.03125 92.292969 108.148438 L 94.121094 111.125 C 94.191406 111.246094 94.15625 111.398438 94.035156 111.472656 C 93.996094 111.496094 93.953125 111.507812 93.90625 111.507812 " fill-opacity="1" fill-rule="nonzero"/><path fill="#363e44" d="M 92.382812 107.457031 C 92.289062 107.457031 92.195312 107.484375 92.113281 107.535156 L 90.433594 108.589844 C 90.320312 108.660156 90.242188 108.773438 90.210938 108.90625 C 90.179688 109.039062 90.203125 109.175781 90.273438 109.289062 L 95.761719 118.03125 C 96.199219 118.730469 97.125 118.941406 97.824219 118.503906 L 97.84375 118.492188 C 98.523438 118.066406 98.738281 117.136719 98.296875 116.4375 L 92.8125 107.695312 C 92.742188 107.582031 92.628906 107.5 92.496094 107.472656 C 92.460938 107.460938 92.421875 107.457031 92.382812 107.457031 Z M 97.03125 119.234375 C 96.367188 119.234375 95.714844 118.902344 95.335938 118.300781 L 89.851562 109.558594 C 89.707031 109.328125 89.660156 109.058594 89.722656 108.792969 C 89.78125 108.53125 89.941406 108.308594 90.167969 108.164062 L 91.847656 107.109375 C 92.074219 106.96875 92.347656 106.921875 92.609375 106.980469 C 92.871094 107.042969 93.09375 107.199219 93.238281 107.429688 L 98.722656 116.171875 C 99.308594 117.105469 99.027344 118.34375 98.089844 118.929688 C 97.761719 119.136719 97.394531 119.234375 97.03125 119.234375 " fill-opacity="1" fill-rule="nonzero"/><path fill="#363e44" d="M 84.40625 98.515625 L 90.382812 108.039062 L 91.640625 107.25 L 85.664062 97.726562 Z M 90.304688 108.636719 C 90.222656 108.636719 90.140625 108.59375 90.089844 108.519531 L 83.847656 98.570312 C 83.8125 98.511719 83.800781 98.445312 83.816406 98.378906 C 83.832031 98.316406 83.871094 98.257812 83.925781 98.222656 L 85.609375 97.167969 C 85.726562 97.09375 85.882812 97.128906 85.957031 97.246094 L 92.199219 107.195312 C 92.234375 107.253906 92.246094 107.320312 92.230469 107.386719 C 92.214844 107.449219 92.175781 107.507812 92.121094 107.542969 L 90.4375 108.597656 C 90.398438 108.625 90.351562 108.636719 90.304688 108.636719 " fill-opacity="1" fill-rule="nonzero"/><path fill="#d87355" d="M 71.738281 97.570312 C 74.003906 103.351562 80.527344 106.203125 86.308594 103.9375 C 92.09375 101.671875 94.941406 95.148438 92.675781 89.367188 C 90.410156 83.585938 83.886719 80.734375 78.105469 83 C 72.320312 85.265625 69.472656 91.789062 71.738281 97.570312 " fill-opacity="1" fill-rule="nonzero"/><path fill="#ffffff" d="M 82.195312 82.476562 C 80.863281 82.476562 79.507812 82.71875 78.195312 83.234375 C 75.460938 84.304688 73.308594 86.378906 72.132812 89.066406 C 70.957031 91.757812 70.898438 94.746094 71.972656 97.480469 C 74.183594 103.121094 80.574219 105.914062 86.21875 103.703125 C 88.84375 102.675781 90.949219 100.703125 92.148438 98.15625 C 93.453125 95.390625 93.558594 92.300781 92.441406 89.457031 C 90.746094 85.128906 86.585938 82.476562 82.195312 82.476562 Z M 82.21875 104.964844 C 77.625 104.964844 73.277344 102.191406 71.503906 97.664062 C 70.382812 94.804688 70.441406 91.679688 71.671875 88.867188 C 72.902344 86.050781 75.152344 83.886719 78.011719 82.765625 C 83.914062 80.453125 90.597656 83.371094 92.910156 89.273438 C 94.074219 92.25 93.96875 95.476562 92.605469 98.367188 C 91.347656 101.035156 89.144531 103.09375 86.402344 104.171875 C 85.027344 104.707031 83.613281 104.964844 82.21875 104.964844 " fill-opacity="1" fill-rule="nonzero"/><path fill="#ffffff" d="M 82.207031 102.175781 C 81.960938 102.175781 81.714844 102.167969 81.464844 102.144531 C 81.328125 102.132812 81.222656 102.011719 81.238281 101.875 C 81.246094 101.734375 81.363281 101.632812 81.507812 101.644531 C 82.765625 101.75 84.003906 101.570312 85.1875 101.105469 C 86.933594 100.421875 88.355469 99.203125 89.292969 97.582031 C 89.359375 97.460938 89.515625 97.421875 89.632812 97.492188 C 89.753906 97.5625 89.796875 97.714844 89.726562 97.835938 C 88.730469 99.554688 87.226562 100.847656 85.371094 101.574219 C 84.347656 101.976562 83.289062 102.175781 82.207031 102.175781 " fill-opacity="1" fill-rule="nonzero"/><path fill="#ffffff" d="M 73.789062 94.625 C 73.664062 94.625 73.554688 94.527344 73.542969 94.402344 C 73.367188 92.796875 73.648438 91.179688 74.347656 89.71875 C 74.40625 89.59375 74.554688 89.539062 74.679688 89.597656 C 74.804688 89.660156 74.859375 89.808594 74.800781 89.933594 C 74.140625 91.3125 73.878906 92.835938 74.039062 94.347656 C 74.054688 94.484375 73.957031 94.609375 73.816406 94.625 L 73.789062 94.625 " fill-opacity="1" fill-rule="nonzero"/><path fill="#ffffff" d="M 75.375 88.734375 C 75.324219 88.734375 75.269531 88.71875 75.226562 88.683594 C 75.113281 88.605469 75.089844 88.445312 75.171875 88.335938 C 76.144531 87 77.476562 85.976562 79.023438 85.371094 C 80.214844 84.902344 81.464844 84.703125 82.738281 84.785156 C 82.878906 84.792969 82.980469 84.914062 82.972656 85.050781 C 82.964844 85.191406 82.84375 85.296875 82.707031 85.285156 C 81.507812 85.210938 80.332031 85.398438 79.203125 85.839844 C 77.75 86.410156 76.496094 87.375 75.578125 88.628906 C 75.527344 88.699219 75.453125 88.734375 75.375 88.734375 " fill-opacity="1" fill-rule="nonzero"/><path fill="#ffffff" d="M 89.984375 97 C 89.953125 97 89.917969 96.996094 89.886719 96.980469 C 89.761719 96.929688 89.699219 96.78125 89.753906 96.652344 C 90.210938 95.566406 90.433594 94.375 90.394531 93.207031 C 90.390625 93.070312 90.5 92.953125 90.636719 92.949219 L 90.644531 92.949219 C 90.78125 92.949219 90.890625 93.054688 90.898438 93.191406 C 90.9375 94.433594 90.703125 95.695312 90.214844 96.847656 C 90.175781 96.945312 90.082031 97 89.984375 97 " fill-opacity="1" fill-rule="nonzero"/><path fill="#e2a18d" d="M 117.589844 103.277344 C 113.074219 104.261719 102.328125 106.046875 101.285156 106.261719 C 99.335938 106.667969 88.9375 109.109375 89.128906 110.644531 C 89.21875 111.382812 91.242188 111 91.921875 110.855469 C 91.433594 111.246094 90.394531 111.972656 90.707031 112.742188 C 91.074219 113.644531 92.738281 113.042969 92.792969 113.050781 C 92.253906 113.398438 91.4375 114.113281 91.648438 114.699219 C 91.921875 115.460938 92.945312 115.449219 93.660156 115.238281 C 93.613281 115.359375 92.804688 116.15625 92.992188 116.617188 C 93.203125 117.125 94.101562 117.21875 95.015625 117.109375 C 96.746094 116.75 103.546875 115.71875 106.875 115.378906 C 114.691406 114.574219 117.105469 113.679688 120.816406 112.625 C 122.269531 112.210938 119.804688 104.410156 117.589844 103.277344 " fill-opacity="1" fill-rule="nonzero"/><path fill="#363e44" d="M 109.375 104.972656 C 109.253906 104.972656 109.148438 104.886719 109.125 104.765625 C 109.101562 104.628906 109.191406 104.496094 109.328125 104.472656 C 111.511719 104.074219 116.042969 103.242188 117.539062 102.933594 C 117.675781 102.902344 117.808594 102.992188 117.835938 103.128906 C 117.863281 103.261719 117.777344 103.398438 117.640625 103.425781 C 116.140625 103.734375 111.605469 104.566406 109.417969 104.964844 C 109.402344 104.96875 109.386719 104.972656 109.375 104.972656 " fill-opacity="1" fill-rule="nonzero"/><path fill="#363e44" d="M 91.882812 111.035156 C 91.800781 111.035156 91.71875 110.996094 91.671875 110.917969 C 91.597656 110.800781 91.632812 110.644531 91.75 110.570312 C 92.117188 110.347656 92.5 110.144531 92.890625 109.972656 C 93.589844 109.664062 94.332031 109.441406 95.09375 109.308594 C 95.234375 109.285156 95.363281 109.378906 95.386719 109.515625 C 95.410156 109.652344 95.316406 109.78125 95.179688 109.804688 C 94.457031 109.929688 93.753906 110.140625 93.09375 110.433594 C 92.722656 110.597656 92.359375 110.785156 92.015625 111 C 91.976562 111.027344 91.929688 111.035156 91.882812 111.035156 " fill-opacity="1" fill-rule="nonzero"/><path fill="#363e44" d="M 92.742188 113.257812 C 92.648438 113.257812 92.558594 113.207031 92.515625 113.117188 C 92.457031 112.992188 92.511719 112.84375 92.632812 112.78125 C 92.714844 112.742188 92.800781 112.707031 92.882812 112.667969 C 93.585938 112.359375 94.328125 112.132812 95.089844 112.003906 C 95.226562 111.980469 95.355469 112.074219 95.378906 112.210938 C 95.402344 112.347656 95.3125 112.476562 95.175781 112.5 C 94.453125 112.621094 93.75 112.832031 93.085938 113.128906 C 93.003906 113.164062 92.929688 113.199219 92.851562 113.234375 C 92.816406 113.253906 92.777344 113.257812 92.742188 113.257812 " fill-opacity="1" fill-rule="nonzero"/><path fill="#363e44" d="M 93.703125 115.460938 C 93.597656 115.460938 93.5 115.394531 93.464844 115.292969 C 93.421875 115.160156 93.488281 115.015625 93.621094 114.972656 C 94.097656 114.808594 94.589844 114.683594 95.085938 114.597656 C 95.226562 114.574219 95.351562 114.667969 95.375 114.804688 C 95.398438 114.941406 95.308594 115.070312 95.171875 115.09375 C 94.699219 115.175781 94.234375 115.292969 93.785156 115.449219 C 93.757812 115.457031 93.730469 115.460938 93.703125 115.460938 " fill-opacity="1" fill-rule="nonzero"/><path fill="#8b865c" d="M 182.617188 173.726562 C 182.617188 173.726562 181.570312 162.011719 171.375 165.152344 C 161.183594 168.296875 152.609375 166.964844 152.609375 166.964844 C 152.609375 166.964844 154.230469 175.058594 161.089844 173.15625 L 159.183594 174.679688 C 159.183594 174.679688 162.421875 178.109375 168.898438 176.109375 C 175.378906 174.105469 180.332031 171.632812 182.617188 173.726562 " fill-opacity="1" fill-rule="nonzero"/><path fill="#8b865c" d="M 185.378906 171.15625 C 185.535156 171.347656 185.4375 156.949219 185.394531 151.804688 C 185.386719 150.644531 184.960938 149.53125 184.191406 148.660156 L 178.234375 141.910156 C 178.234375 141.910156 176.234375 148.007812 180.808594 150.769531 C 185.378906 153.53125 176.519531 159.914062 185.378906 171.15625 " fill-opacity="1" fill-rule="nonzero"/><path fill="#8b865c" d="M 200.550781 153.835938 L 188.539062 160.109375 C 187.628906 160.585938 187.0625 161.519531 187.0625 162.546875 L 187.0625 173.25 C 188.0625 172.542969 190.664062 170.570312 190.996094 168.976562 C 191.070312 168.625 191.023438 168.324219 190.851562 168.058594 C 189.960938 166.695312 189.875 164.953125 190.652344 164.007812 C 191.15625 163.398438 191.933594 163.253906 192.792969 163.601562 C 193.804688 164.015625 195.542969 163.570312 197.023438 162.523438 C 198.574219 161.425781 199.460938 159.933594 199.394531 158.535156 C 199.289062 156.359375 199.988281 154.757812 200.550781 153.835938 Z M 186.8125 173.976562 C 186.769531 173.976562 186.726562 173.96875 186.691406 173.945312 C 186.609375 173.902344 186.558594 173.816406 186.558594 173.726562 L 186.558594 162.546875 C 186.558594 161.332031 187.230469 160.226562 188.308594 159.664062 L 201.285156 152.886719 C 201.390625 152.832031 201.527344 152.863281 201.601562 152.960938 C 201.675781 153.058594 201.667969 153.199219 201.582031 153.285156 C 201.5625 153.304688 199.738281 155.234375 199.894531 158.511719 C 199.972656 160.105469 199.03125 161.71875 197.3125 162.933594 C 195.675781 164.09375 193.78125 164.546875 192.601562 164.066406 C 191.941406 163.800781 191.402344 163.886719 191.039062 164.324219 C 190.484375 165.003906 190.417969 166.480469 191.273438 167.785156 C 191.515625 168.160156 191.589844 168.597656 191.488281 169.082031 C 191.035156 171.25 187.113281 173.828125 186.945312 173.9375 C 186.90625 173.960938 186.859375 173.976562 186.8125 173.976562 " fill-opacity="1" fill-rule="nonzero"/><path fill="#363e44" d="M 182.980469 191.269531 C 182.839844 191.269531 182.726562 191.15625 182.726562 191.015625 L 182.726562 175.261719 C 182.585938 174.308594 182.207031 173.5 181.632812 172.929688 C 178.53125 169.828125 173.960938 168.550781 169.707031 169.589844 C 166.21875 170.445312 162.53125 170.445312 159.042969 169.589844 L 157.609375 169.238281 C 157.476562 169.207031 157.394531 169.070312 157.425781 168.933594 C 157.460938 168.800781 157.597656 168.71875 157.730469 168.75 L 159.160156 169.101562 C 162.570312 169.9375 166.175781 169.9375 169.585938 169.105469 C 174.011719 168.023438 178.765625 169.351562 181.988281 172.574219 C 182.640625 173.226562 183.070312 174.136719 183.226562 175.207031 C 183.226562 175.214844 183.230469 175.230469 183.230469 175.242188 L 183.230469 191.015625 C 183.230469 191.15625 183.117188 191.269531 182.980469 191.269531 " fill-opacity="1" fill-rule="nonzero"/><path fill="#363e44" d="M 185.464844 191.269531 C 185.324219 191.269531 185.210938 191.15625 185.210938 191.015625 L 185.210938 151.761719 C 185.210938 151.621094 185.324219 151.507812 185.464844 151.507812 C 185.605469 151.507812 185.714844 151.621094 185.714844 151.761719 L 185.714844 191.015625 C 185.714844 191.15625 185.605469 191.269531 185.464844 191.269531 " fill-opacity="1" fill-rule="nonzero"/><path fill="#8b865c" d="M 186.808594 191.269531 C 186.671875 191.269531 186.558594 191.15625 186.558594 191.015625 L 186.558594 173.78125 C 186.558594 173.644531 186.671875 173.53125 186.808594 173.53125 C 186.949219 173.53125 187.0625 173.644531 187.0625 173.78125 L 187.0625 191.015625 C 187.0625 191.15625 186.949219 191.269531 186.808594 191.269531 " fill-opacity="1" fill-rule="nonzero"/><path fill="#efbc73" d="M 194.554688 190.582031 L 194.554688 199.171875 C 194.554688 203.914062 190.707031 207.761719 185.964844 207.761719 C 181.21875 207.761719 177.375 203.914062 177.375 199.171875 L 177.375 190.582031 L 194.554688 190.582031 " fill-opacity="1" fill-rule="nonzero"/></svg>