<svg xmlns="http://www.w3.org/2000/svg" xmlns:xlink="http://www.w3.org/1999/xlink" width="278" zoomAndPan="magnify" viewBox="0 0 208.5 208.499992" height="278" preserveAspectRatio="xMidYMid meet" version="1.0"><defs><clipPath id="a40fc13766"><path d="M 15.507812 0 L 117 0 L 117 177 L 15.507812 177 Z M 15.507812 0 " clip-rule="nonzero"/></clipPath><clipPath id="a18a0d29da"><path d="M 104 0 L 193.257812 0 L 193.257812 177 L 104 177 Z M 104 0 " clip-rule="nonzero"/></clipPath><clipPath id="6a06d87128"><path d="M 54 48 L 117 48 L 117 208 L 54 208 Z M 54 48 " clip-rule="nonzero"/></clipPath><clipPath id="5cee9d73fe"><path d="M 104 48 L 155 48 L 155 208 L 104 208 Z M 104 48 " clip-rule="nonzero"/></clipPath></defs><g clip-path="url(#a40fc13766)"><path fill="#e6a4fb" d="M 80.117188 0 L 55.589844 9.597656 L 26.511719 1.070312 L 16.628906 10.9375 L 25.171875 39.976562 L 15.558594 64.46875 L 25.058594 88.675781 L 15.558594 112.882812 L 25.171875 137.375 L 16.628906 166.414062 L 26.511719 176.28125 L 61.371094 166.054688 L 104.359375 166.054688 L 116.59375 112.242188 L 104.359375 9.488281 Z M 80.117188 0 " fill-opacity="1" fill-rule="nonzero"/></g><g clip-path="url(#a18a0d29da)"><path fill="#6cff8c" d="M 193.164062 112.882812 L 183.546875 137.375 L 192.089844 166.414062 L 182.210938 176.28125 L 147.347656 166.054688 L 104.359375 166.054688 L 104.359375 9.488281 L 128.601562 0 L 153.128906 9.597656 L 182.210938 1.070312 L 192.089844 10.9375 L 183.546875 39.976562 L 193.164062 64.46875 L 183.660156 88.675781 Z M 193.164062 112.882812 " fill-opacity="1" fill-rule="nonzero"/></g><g clip-path="url(#6a06d87128)"><path fill="#f9fff5" d="M 85.492188 48.476562 L 85.492188 112.300781 C 77.191406 115.695312 69.8125 121.34375 64.390625 128.53125 C 57.816406 137.242188 54.339844 147.625 54.339844 158.558594 C 54.339844 186.09375 76.78125 208.5 104.359375 208.5 L 116.59375 112.363281 L 104.359375 48.476562 Z M 85.492188 48.476562 " fill-opacity="1" fill-rule="nonzero"/></g><g clip-path="url(#5cee9d73fe)"><path fill="#dff2ea" d="M 154.378906 158.558594 C 154.378906 186.09375 131.9375 208.5 104.359375 208.5 L 104.359375 48.476562 L 123.226562 48.476562 L 123.226562 112.300781 C 131.527344 115.695312 138.910156 121.34375 144.328125 128.53125 C 150.902344 137.242188 154.378906 147.625 154.378906 158.558594 Z M 154.378906 158.558594 " fill-opacity="1" fill-rule="nonzero"/></g><path fill="#dff2ea" d="M 104.359375 42.441406 L 112.515625 48.476562 L 104.359375 54.65625 L 74.722656 54.65625 L 74.722656 42.441406 Z M 104.359375 42.441406 " fill-opacity="1" fill-rule="nonzero"/><path fill="#ecca5b" d="M 104.320312 156.292969 C 92.84375 156.292969 86.894531 152.445312 81.65625 149.046875 C 77.929688 146.632812 74.847656 144.632812 69.558594 143.988281 C 67.632812 148.523438 66.578125 153.460938 66.578125 158.558594 C 66.578125 179.359375 83.527344 196.285156 104.359375 196.285156 L 112.515625 176.472656 L 104.359375 156.292969 Z M 104.320312 156.292969 " fill-opacity="1" fill-rule="nonzero"/><path fill="#3ba7ca" d="M 142.140625 158.558594 C 142.140625 179.359375 125.191406 196.285156 104.359375 196.285156 L 104.359375 156.292969 C 115.816406 156.285156 121.75 152.441406 126.984375 149.046875 C 130.722656 146.621094 133.820312 144.617188 139.15625 143.980469 C 141.082031 148.515625 142.140625 153.460938 142.140625 158.558594 Z M 142.140625 158.558594 " fill-opacity="1" fill-rule="nonzero"/><path fill="#c1e6eb" d="M 104.359375 42.441406 L 134.320312 42.441406 L 134.320312 54.65625 L 104.359375 54.65625 Z M 104.359375 42.441406 " fill-opacity="1" fill-rule="nonzero"/></svg>