<?xml version="1.0" standalone="no"?>
<!DOCTYPE svg PUBLIC "-//W3C//DTD SVG 20010904//EN"
 "http://www.w3.org/TR/2001/REC-SVG-20010904/DTD/svg10.dtd">
<svg version="1.0" xmlns="http://www.w3.org/2000/svg"
 width="500.000000pt" height="500.000000pt" viewBox="0 0 500.000000 500.000000"
 preserveAspectRatio="xMidYMid meet">
<metadata>
Created by potrace 1.14, written by Peter Selinger 2001-2017
</metadata>
<g transform="translate(0.000000,500.000000) scale(0.100000,-0.100000)"
fill="#000000" stroke="none">
<path d="M0 2500 l0 -2500 378 0 377 1 -28 22 -27 23 177 224 c98 123 277 348
398 499 121 152 348 438 505 635 157 197 413 519 569 715 156 196 358 451 449
566 92 116 290 365 441 555 151 190 338 424 415 520 76 96 143 179 148 184 4
6 8 -659 8 -1477 l0 -1487 -255 0 -255 0 0 729 c0 402 -4 732 -9 735 -7 5
-228 -267 -650 -801 -75 -95 -139 -171 -143 -170 -3 1 -66 76 -138 167 -73 91
-136 169 -140 173 -6 7 -121 -134 -521 -638 -75 -93 -279 -350 -454 -570 -443
-556 -461 -578 -469 -592 -6 -10 419 -13 2108 -13 l2116 0 0 2500 0 2500
-2500 0 -2500 0 0 -2500z m4284 2431 c16 -18 11 -25 -105 -172 -213 -267 -259
-326 -560 -704 -162 -203 -391 -491 -509 -640 -118 -148 -336 -423 -485 -610
-149 -187 -340 -428 -424 -535 -183 -233 -170 -218 -179 -203 -4 6 -74 94
-157 196 -140 173 -150 184 -156 159 -4 -15 -7 -185 -8 -378 -1 -283 -4 -360
-16 -394 -16 -45 -57 -100 -319 -428 l-171 -213 -3 730 c-1 402 -1 1060 0
1463 l3 732 466 -585 c256 -321 505 -635 554 -696 49 -62 91 -113 94 -113 3 1
85 100 181 222 167 211 609 766 1145 1439 137 173 321 404 408 514 87 110 165
208 173 218 18 22 47 22 68 -2z"/>
</g>
</svg>
